<svg width="40" height="40" viewBox="0 0 40 40" fill="none" xmlns="http://www.w3.org/2000/svg">
<rect x="0.5" y="0.5" width="39" height="39" fill="black" stroke="white"/>
<path d="M25.3 17.06H28.14V17.98H25.3V24.26H24.22V11H25.3V17.06ZM19.3 11.58V12.5H13.96V11.58H19.3ZM20.56 18.82C20.56 20.8 18.92 22.1 16.5 22.1C14.08 22.1 12.44 20.8 12.44 18.82C12.44 17.48 13.1 16.46 14.34 15.96V15.88H11V14.98H21.88V15.88H18.66V15.96C19.9 16.46 20.56 17.48 20.56 18.82ZM13.48 18.58C13.48 20.26 14.72 21.18 16.32 21.18H16.68C18.28 21.18 19.52 20.26 19.52 18.58C19.52 16.88 18.3 15.98 16.68 15.98H16.32C14.68 15.98 13.48 16.88 13.48 18.58ZM15.7 23.74V27.74H25.68V28.66H15.38C14.88 28.66 14.62 28.4 14.62 27.9V23.74H15.7Z" fill="white"/>
</svg>
