<svg width="40" height="40" viewBox="0 0 40 40" fill="none" xmlns="http://www.w3.org/2000/svg">
<rect x="0.5" y="0.5" width="39" height="39" fill="black" stroke="white"/>
<path d="M13.3405 11.0026C17.2052 7.87695 22.872 8.47573 25.9977 12.3405C29.0178 16.0748 28.5594 21.4904 25.0387 24.6716L30.4869 31.4079L30.0983 31.7224L29.7086 32.0368L24.2613 25.3005C20.4144 28.0781 15.0228 27.3938 12.0026 23.6599C8.87693 19.7951 9.47582 14.1283 13.3405 11.0026ZM25.2203 12.9694C22.442 9.53406 17.4047 9.00159 13.9694 11.78C10.534 14.5584 10.0015 19.5956 12.7799 23.031C15.5583 26.4661 20.5956 26.9987 24.0309 24.2204C27.4661 21.442 27.9986 16.4048 25.2203 12.9694Z" fill="white"/>
</svg>
