<svg width="40" height="40" viewBox="0 0 40 40" fill="none" xmlns="http://www.w3.org/2000/svg">
<rect x="0.5" y="0.5" width="39" height="39" fill="black" stroke="white"/>
<path d="M19.0172 24.8616C19.017 21.948 16.6545 19.5862 13.7409 19.5862C10.8275 19.5865 8.46577 21.9482 8.46551 24.8616C8.46551 27.7752 10.8273 30.1377 13.7409 30.1379V31.1379L13.4186 31.1301C10.1025 30.9622 7.46552 28.2194 7.46552 24.8616C7.46577 21.3959 10.2752 18.5865 13.7409 18.5862C17.2068 18.5862 20.017 21.3957 20.0172 24.8616L20.0094 25.1848C19.8414 28.5009 17.0987 31.1379 13.7409 31.1379V30.1379C16.6547 30.1379 19.0172 27.7754 19.0172 24.8616Z" fill="white"/>
<path d="M29.6974 16.1982L20.5002 21.5078L15.1896 12.3105L24.3879 7L29.6974 16.1982ZM16.5558 12.6758L20.8664 20.1416L28.3312 15.8311L24.0217 8.36621L16.5558 12.6758Z" fill="white"/>
<path d="M32.4999 31.1377H19.121L25.8105 19.5517L32.4999 31.1377ZM20.8535 30.1377H30.7675L25.8105 21.5517L20.8535 30.1377Z" fill="white"/>
</svg>
