<svg width="40" height="40" viewBox="0 0 40 40" fill="none" xmlns="http://www.w3.org/2000/svg">
<rect x="0.5" y="0.5" width="39" height="39" fill="black" stroke="white"/>
<path d="M18.1747 10.6687C13.348 12.4647 10.5001 16.4783 10.4999 20.8972C10.4999 25.7353 13.7917 28.8219 17.8398 29.7117L17.6249 30.6883C13.2088 29.7176 9.49991 26.2917 9.49991 20.8972C9.50009 16.0143 12.6523 11.6561 17.8251 9.73123L18.1747 10.6687Z" fill="white"/>
<path d="M21.8251 29.7313C26.6519 27.9353 29.4998 23.9217 29.4999 19.5027C29.4999 14.6647 26.2081 11.5781 22.1601 10.6883L22.3749 9.71173C26.791 10.6824 30.4999 14.1083 30.4999 19.5027C30.4998 24.3857 27.3475 28.7439 22.1747 30.6688L21.8251 29.7313Z" fill="white"/>
<path d="M18.4999 17.2L17.4999 17.2L17.4999 10.7L8.99991 10.7L8.99991 9.69998L18.4999 9.69998L18.4999 17.2Z" fill="white"/>
<path d="M21.4999 23.2L22.4999 23.2L22.4999 29.7L30.9999 29.7L30.9999 30.7L21.4999 30.7L21.4999 23.2Z" fill="white"/>
</svg>
