<svg width="448" height="118" viewBox="0 0 448 118" fill="none" xmlns="http://www.w3.org/2000/svg">
<path d="M102.234 93.7233L101.581 89.6134L104.8 89.0996L103.436 80.4594L100.217 80.9731L99.5519 76.7698L90.6534 78.1826L91.3181 82.3859L88.6007 82.8179L88.6707 83.2266C87.936 83.0398 87.1546 82.9464 86.3382 82.9464C85.7551 82.9464 85.1486 82.9931 84.5422 83.0865C81.1484 83.6236 78.6176 85.5034 77.253 88.2356C75.527 86.4608 73.2061 85.4334 70.5587 85.4334C69.9872 85.4334 69.3924 85.4801 68.7977 85.5735C66.6168 85.9238 64.7157 86.8578 63.2696 88.2473L63.048 86.8462L59.8291 87.3599L59.1643 83.1565L50.2658 84.5693L50.9306 88.7727L48.2132 89.2047L48.3998 90.3723C47.2102 89.8586 45.904 89.5667 44.4928 89.5667C43.9213 89.5667 43.3265 89.6134 42.7318 89.7068C40.8308 90.0104 39.1513 90.7576 37.7868 91.8902L37.6235 90.886L33.7632 91.4932C33.285 91.5633 32.8419 91.68 32.4104 91.8201V91.715L25.9143 92.7425C24.6197 90.5591 22.5555 89.1463 19.9897 88.761C22.7187 88.2473 24.888 87.2431 26.4274 85.7369C27.8386 84.3708 28.62 82.6661 28.7366 80.833L31.4773 82.4793L33.1334 80.401C34.0431 79.2684 34.9528 78.0775 35.7692 76.8281L40.9474 80.7162L42.1953 79.2451L42.93 83.8688L52.0152 82.4326L50.4057 72.2745L51.8869 73.1735L52.4817 76.9332L64.6224 75.0067L65.6488 81.5102L74.6523 80.0857L69.9289 50.2068L60.8671 51.643L61.077 52.974L47.6767 55.0991L47.4668 53.768L38.3816 55.2042L38.5332 56.1499L25.7977 58.1699L26.4858 62.5134L25.9959 62.5951L25.1562 57.3059L16.0944 58.742L16.2926 60.0264L0.664768 62.5017L2.01763 71.0602L4.93328 70.5931C4.43179 71.2704 3.73203 72.0643 2.76404 73.0218L0 75.7656L7.61568 80.366C7.53404 81.0315 7.5457 81.7554 7.67399 82.5027C8.14049 85.4217 10.4147 88.5275 15.3713 89.0062L4.90995 90.6642L9.13181 117.332L18.4736 115.849L17.1673 107.618L19.6981 107.221C21.8557 106.882 23.6401 105.995 24.9696 104.652L26.5441 114.577L35.7692 113.117L33.8332 100.904C33.9382 100.869 34.0781 100.834 34.2414 100.787C34.2647 101.301 34.3114 101.826 34.4047 102.364C35.326 108.19 39.2796 111.961 44.4578 111.961C45.0293 111.961 45.6241 111.915 46.2189 111.821C49.7526 111.261 52.3884 109.171 53.7296 106.205C54.7676 108.167 56.6686 109.322 59.071 109.322C59.4909 109.322 59.9341 109.287 60.3773 109.217L66.1852 108.295L65.9403 106.754C67.2815 107.454 68.8093 107.84 70.4887 107.84C71.0719 107.84 71.6783 107.793 72.2848 107.699C75.5969 107.174 78.3377 105.411 79.8305 102.889C81.5332 104.465 83.7141 105.341 86.2449 105.341C86.828 105.341 87.4345 105.294 88.0526 105.201C91.0732 104.722 93.4291 103.181 94.8402 100.846C95.9365 102.165 97.546 102.924 99.4936 102.924C99.9135 102.924 100.357 102.889 100.8 102.819L106.608 101.897L105.243 93.2563L102.258 93.735L102.234 93.7233ZM49.8226 63.5408C49.636 63.8094 49.4028 64.1013 49.1462 64.4165L49.0296 63.6693L49.8226 63.5408ZM40.5742 69.0636L40.6092 69.3088L40.3176 69.0986L40.5625 69.0636H40.5742ZM28.8533 70.9201C28.5734 71.5039 28.1768 72.1694 27.6287 72.905L27.3488 71.1536L28.8533 70.9201ZM15.7678 98.6973L15.6745 98.1369L17.6805 97.8216L17.7738 98.382L15.7678 98.6973ZM45.3092 103.006C45.3092 103.006 45.1459 103.111 44.8427 103.158C44.7377 103.169 44.6444 103.181 44.5628 103.181C44.4228 103.181 44.3645 103.158 44.3645 103.158C44.3645 103.158 44.1429 102.947 44.0146 102.188L43.6064 99.5847C43.4898 98.8141 43.6298 98.5572 43.6298 98.5572C43.6531 98.5338 43.793 98.4521 44.0963 98.4054C44.2012 98.3937 44.2945 98.382 44.3762 98.382C44.5161 98.382 44.5744 98.4054 44.5744 98.4054C44.5744 98.4054 44.796 98.6156 44.9243 99.3745L45.3325 101.978C45.4491 102.749 45.3092 103.006 45.3092 103.006ZM87.4112 95.6382C87.2012 96.4438 87.0613 96.4672 86.6648 96.5256C86.5715 96.5372 86.4898 96.5489 86.4198 96.5489C86.3149 96.5489 86.2682 96.5372 86.2682 96.5372C86.2682 96.5372 86.035 96.2453 85.9417 95.6265L85.5102 92.871C85.4169 92.2521 85.5102 91.9486 85.5451 91.9135C85.5451 91.9135 85.6384 91.8435 85.93 91.7968C86.0233 91.7851 86.105 91.7734 86.1633 91.7734C86.2099 91.7734 86.2566 91.7734 86.2566 91.7734C86.2799 91.7968 86.3265 91.8552 86.3732 91.9602L87.6794 94.6107L87.4112 95.6382ZM92.5077 91.9719L92.8343 94.0503L90.5834 93.2796L92.5077 91.9719Z" fill="white"/>
<path d="M214.02 75.9991L210.976 56.7337L201.751 58.1932L203.197 67.3122C201.751 66.0395 199.792 65.3506 197.471 65.3506C196.795 65.3506 196.083 65.409 195.36 65.5258C191.99 66.0629 189.984 67.6391 188.782 69.3088C187.266 68.1762 185.412 67.5691 183.348 67.5691C182.765 67.5691 182.158 67.6158 181.552 67.7092C178.718 68.1645 176.49 69.554 175.032 71.5973L174.694 69.4722C174.799 68.9118 174.811 68.3163 174.717 67.6858L174.636 67.1838C174.263 64.7902 172.385 63.1906 169.971 63.1906C169.656 63.1906 169.329 63.2139 169.003 63.2723C166.612 63.6576 165.026 65.2572 164.792 67.3589L164.653 66.4598L156.302 67.7792C155.451 66.6467 154.11 65.9578 152.535 65.9578C152.22 65.9578 151.894 65.9811 151.567 66.0395C150.028 66.2847 149.071 66.9736 148.5 67.6041L148.348 66.67L145.934 67.0553L144.721 59.4075L132.254 61.3808L132.172 60.867L147.31 58.4618L145.957 49.8799L143.03 50.3469L142.284 45.6415L130.248 47.5447L129.327 41.7067L120.265 43.1429L121.932 53.6746L120.463 53.9081C120.65 52.9507 120.65 52.0049 120.498 51.1059C119.961 47.7315 117.209 44.1236 111.086 44.1236C110.188 44.1236 109.22 44.2054 108.229 44.3572C100.368 45.6065 98.1407 50.3937 98.5956 54.2584L97.8375 54.3752L96.508 45.9684L87.4461 47.4046L87.761 49.3778L73.0079 51.713L74.3607 60.2716L78.6875 59.5827C78.4543 61.3341 77.5446 63.3423 75.352 66.3197L73.3344 69.0402L81.3116 73.7106L82.9094 71.3287C83.7841 70.021 84.5538 68.8184 85.2186 67.6508L90.1985 72.0877L91.1898 70.9201L92.0062 76.0809L101.068 74.6447L99.9368 67.5224L103.121 67.0203L104.357 74.8082L121.349 72.111L120.113 64.3231L123.344 63.8094L123.752 66.3548C124.16 68.9352 126.038 70.6048 128.522 70.6048C128.837 70.6048 129.152 70.5815 129.478 70.5231L139.263 68.9702L140.546 77.0733C138.937 75.8707 136.989 75.2052 134.808 75.2052C134.236 75.2052 133.642 75.2519 133.047 75.3453C130.971 75.6722 129.14 76.5596 127.729 77.8673C126.341 74.5396 123.449 72.5547 119.74 72.5547C119.18 72.5547 118.585 72.6014 118.002 72.6948L106.13 74.5747L110.351 101.243L119.693 99.7598L118.387 91.5282L120.918 91.1312C122.527 90.8744 123.915 90.3139 125.07 89.5083C126.388 94.4706 130.073 97.5997 134.796 97.5997C135.368 97.5997 135.963 97.553 136.557 97.4596C139.765 96.9459 142.237 95.1828 143.66 92.6374C144.721 94.1904 146.436 95.0894 148.535 95.0894C148.955 95.0894 149.386 95.0544 149.829 94.9843L160.606 93.2796L160.209 90.7926C161.294 91.9135 162.798 92.544 164.571 92.544C164.991 92.544 165.434 92.509 165.877 92.439L178.041 90.5124L177.668 88.1305C179.231 89.2748 181.12 89.9169 183.254 89.9169C183.838 89.9169 184.444 89.8702 185.062 89.7768C187.605 89.3682 189.669 88.2239 191.103 86.4725C192.363 87.4183 193.949 87.9437 195.792 87.9437C196.328 87.9437 196.888 87.897 197.448 87.8036C199.127 87.535 200.562 86.8929 201.658 85.9588C202.311 86.2156 203.022 86.3558 203.781 86.3558C204.119 86.3558 204.469 86.3324 204.819 86.274L209.624 85.5151L209.542 84.9663C210.055 85.0947 210.603 85.1648 211.186 85.1648C211.606 85.1648 212.038 85.1298 212.481 85.0597L217.554 84.2541L216.19 75.6138L214.055 75.9524L214.02 75.9991ZM88.7524 58.8588L88.6357 58.7654C88.3908 58.5785 88.1342 58.4267 87.8777 58.2866C87.8777 58.2399 87.8777 58.1932 87.8777 58.1582L89.1256 57.9597L89.3472 59.3492L88.764 58.8471L88.7524 58.8588ZM109.57 52.904C109.197 52.9624 108.859 52.9974 108.555 52.9974C108.812 52.9157 109.139 52.8339 109.547 52.7756C109.92 52.7172 110.27 52.6821 110.573 52.6821C110.305 52.7639 109.978 52.8456 109.57 52.904ZM116.964 82.6545L116.871 82.094L118.877 81.7788L118.97 82.3392L116.964 82.6545ZM135.636 88.6793C135.636 88.6793 135.473 88.7844 135.169 88.8311C135.065 88.8428 134.971 88.8544 134.89 88.8544C134.75 88.8544 134.691 88.8311 134.691 88.8311C134.691 88.8311 134.47 88.6209 134.341 87.862L133.933 85.2582C133.817 84.4876 133.957 84.2307 133.957 84.2307C133.957 84.2307 134.12 84.1256 134.423 84.0789C134.528 84.0673 134.621 84.0556 134.703 84.0556C134.843 84.0556 134.901 84.0789 134.901 84.0789C134.901 84.0789 135.123 84.2891 135.251 85.048L135.659 87.6518C135.776 88.4224 135.636 88.6793 135.636 88.6793ZM165.294 70.5698C165.294 70.5698 165.317 70.6282 165.341 70.6515H165.317L165.306 70.5698H165.294ZM166.67 79.2918L166.787 79.2684L167.44 83.3784L167.323 83.4017L166.67 79.2918ZM184.409 80.2609C184.199 81.0665 184.059 81.0899 183.663 81.1483C183.569 81.1599 183.488 81.1716 183.418 81.1716C183.313 81.1716 183.266 81.1599 183.266 81.1599C183.266 81.1599 183.033 80.868 182.939 80.2492L182.508 77.4937C182.415 76.8748 182.508 76.5713 182.543 76.5362C182.543 76.5362 182.636 76.4662 182.928 76.4195C183.021 76.4078 183.103 76.3961 183.173 76.3961C183.219 76.3961 183.266 76.3961 183.266 76.3961C183.289 76.4195 183.336 76.4779 183.383 76.5829L184.689 79.2334L184.421 80.2609H184.409ZM188.899 77.0033C188.712 77.3769 188.561 77.7739 188.444 78.1826L187.593 77.8906L188.911 77.0033H188.899Z" fill="white"/>
<path d="M342.379 59.2791C341.971 56.722 339.976 55.0057 337.399 55.0057C337.084 55.0057 336.746 55.029 336.419 55.0874C334.518 55.391 333.457 56.3718 332.897 57.1307C332.827 57.2358 332.757 57.3292 332.699 57.4343C331.824 56.687 330.693 56.2667 329.41 56.2667C329.095 56.2667 328.757 56.29 328.43 56.3484C326.529 56.652 325.468 57.6328 324.92 58.3917C324.85 58.4968 324.78 58.5902 324.722 58.6953C323.847 57.948 322.716 57.5277 321.433 57.5277C321.118 57.5277 320.78 57.551 320.453 57.6094C319.217 57.8079 318.342 58.2866 317.724 58.8121L317.188 55.4143C316.418 50.5104 313.432 47.5797 309.222 47.5797C308.744 47.5797 308.254 47.6148 307.764 47.6965C307.263 47.7782 306.773 47.895 306.318 48.0468L305.327 41.7768L296.102 43.2363L297.326 51.0008C296.125 50.4287 294.784 50.1251 293.326 50.1251C292.743 50.1251 292.136 50.1718 291.53 50.2652C288.136 50.8023 285.605 52.6821 284.241 55.4143C282.515 53.6396 280.194 52.6121 277.546 52.6121C276.975 52.6121 276.38 52.6588 275.785 52.7522C272.357 53.301 269.791 55.1808 268.415 57.9364C266.689 56.1499 264.368 55.1224 261.709 55.1224C261.137 55.1224 260.542 55.1691 259.948 55.2625C256.962 55.7413 254.501 57.2942 253.02 59.6527C252.868 59.8979 252.74 60.1431 252.6 60.4C250.979 58.5669 248.81 57.551 246.267 57.551C245.754 57.551 245.229 57.5978 244.693 57.6795C243.842 57.8079 243.06 58.0648 242.337 58.4151L237.066 59.2557L235.806 58.0998C233.625 56.1032 231.024 55.0991 228.05 55.0991C227.327 55.0991 226.569 55.1575 225.8 55.2859C219.688 56.255 216.155 60.4934 216.994 65.8293C217.356 68.1062 218.475 70.7099 221.484 72.1694L217.123 77.7856L219.245 79.6771C221.636 81.8138 224.423 82.8997 227.526 82.8997C228.272 82.8997 229.053 82.8413 229.835 82.7128C233.019 82.2108 235.503 80.8097 237.077 78.8247L238.383 87.068L247.609 85.6085L246.711 79.9223C246.711 79.9223 246.816 79.9223 246.874 79.9223C247.305 79.9223 247.76 79.8873 248.192 79.8172C250.897 79.3852 253.545 77.844 254.886 74.8199C256.635 76.5596 258.956 77.5404 261.639 77.5404C262.222 77.5404 262.828 77.4937 263.435 77.4003C266.759 76.8748 269.499 75.1001 270.992 72.5664C272.706 74.1543 274.922 75.03 277.476 75.03C278.06 75.03 278.666 74.9833 279.273 74.8899C282.585 74.3645 285.325 72.6014 286.818 70.0794C288.521 71.6557 290.702 72.5314 293.233 72.5314C293.816 72.5314 294.422 72.4847 295.04 72.3913C297.163 72.0526 298.959 71.1886 300.324 69.9043L300.522 71.1653L309.747 69.7058L307.706 56.7804C307.706 56.7804 307.823 56.7454 307.904 56.7221C307.951 56.8505 307.986 57.0373 308.032 57.2825L309.992 69.6707L319.217 68.2112L319.159 67.8026C319.765 68.0478 320.43 68.1879 321.153 68.1879C321.468 68.1879 321.806 68.1645 322.133 68.1062C324.022 67.8026 325.095 66.8218 325.643 66.0629C325.713 65.9578 325.783 65.8644 325.841 65.7593C326.716 66.5065 327.847 66.9269 329.13 66.9269C329.445 66.9269 329.783 66.9035 330.11 66.8451C331.999 66.5416 333.072 65.5608 333.62 64.8018C333.69 64.6968 333.76 64.6034 333.818 64.4983C334.693 65.2455 335.824 65.6659 337.107 65.6659C337.422 65.6659 337.76 65.6425 338.087 65.5841C339.976 65.2806 341.049 64.2998 341.597 63.5408C342.367 62.4783 342.67 61.1356 342.449 59.7578L342.379 59.3141V59.2791ZM228.61 73.7223C228.365 73.7573 228.132 73.7807 227.91 73.7807C227.467 73.7807 226.907 73.7106 226.208 73.3137C226.441 73.3253 226.674 73.337 226.931 73.3487L228.785 73.3837C229.123 73.3954 229.368 73.4304 229.543 73.4538C229.415 73.5238 229.135 73.6523 228.622 73.734L228.61 73.7223ZM233.87 65.0237L234.745 63.9612L235.001 65.5958C234.651 65.3857 234.278 65.1872 233.87 65.0237ZM246.314 70.9668C246.221 71.0952 245.952 71.1536 245.836 71.1769C245.719 71.2003 245.603 71.2003 245.498 71.2003C245.498 71.2003 245.393 71.2003 245.346 71.2003L244.646 66.7868C244.763 66.7401 244.915 66.6817 245.124 66.6583C245.206 66.6467 245.288 66.635 245.358 66.635C245.533 66.635 245.836 66.635 245.964 67.4757L246.384 70.1378C246.454 70.5698 246.384 70.8617 246.314 70.9668ZM294.422 62.8169C294.212 63.6226 294.072 63.6459 293.676 63.7043C293.583 63.716 293.501 63.7277 293.431 63.7277C293.326 63.7277 293.279 63.716 293.279 63.716C293.233 63.681 293.046 63.4241 292.941 62.8052L292.51 60.0497C292.416 59.4309 292.51 59.1273 292.545 59.0923C292.545 59.0923 292.638 59.0222 292.929 58.9755C293.023 58.9638 293.104 58.9522 293.174 58.9522C293.221 58.9522 293.268 58.9522 293.268 58.9522C293.291 58.9755 293.338 59.0339 293.384 59.139L294.69 61.7894L294.422 62.8169ZM297.583 60.4584L298.714 59.6878L298.912 60.9137L297.583 60.4584Z" fill="white"/>
<path d="M445.29 42.956C445.138 41.9869 444.765 41.1463 444.228 40.4807L443.855 38.1455C446.561 36.3474 448.532 33.2182 447.879 29.1083C447.156 24.5663 443.68 21.6356 439.015 21.6356C438.409 21.6356 437.767 21.6823 437.126 21.7874C432.659 22.4997 429.522 25.6172 428.88 29.9723C427.749 29.4936 426.501 29.2251 425.16 29.2251C424.589 29.2251 423.994 29.2718 423.399 29.3652C419.982 29.9023 417.439 31.7821 416.052 34.5026C414.43 32.6695 412.261 31.6653 409.719 31.6653C409.206 31.6653 408.681 31.712 408.144 31.7938C407.643 31.8755 407.165 31.9923 406.698 32.1557L405.707 25.874L396.482 27.3335L397.508 33.8487L393.193 34.5376L392.167 40.5274L389.344 35.1565L379.746 36.6743L379.921 36.9896C379.256 36.8495 378.556 36.7794 377.81 36.7794C377.133 36.7794 376.422 36.8378 375.699 36.9546C372.69 37.4333 370.766 38.741 369.541 40.2005L368.41 33.0665L359.814 34.4325L357.155 42.2672L352.21 35.6352L343.44 37.0246L347.662 63.6926L356.864 62.2331L355.756 55.2625L360.001 60.7503L362.345 54.2117L363.453 61.1823L372.655 59.7228L372.468 58.5552C373.53 59.104 374.766 59.3959 376.142 59.3959C376.679 59.3959 377.238 59.3492 377.798 59.2557C379.478 58.9872 380.912 58.345 382.008 57.4109C382.661 57.6678 383.373 57.8079 384.131 57.8079C384.469 57.8079 384.819 57.7846 385.169 57.7262L386.487 57.516L387.42 63.4358L392.283 62.6651C395.84 62.1047 397.776 60.2015 398.394 56.6987L399.875 48.5605L400.925 55.2275L409.217 53.9081C409.59 53.9665 409.964 53.9899 410.348 53.9899C410.78 53.9899 411.235 53.9548 411.666 53.8848C414.512 53.4294 416.786 51.8648 418.057 49.4829C418.162 49.2844 418.256 49.0743 418.349 48.8758C420.098 50.6272 422.419 51.6196 425.125 51.6196C425.708 51.6196 426.315 51.5729 426.921 51.4795C430.711 50.8724 433.744 48.6539 435.027 45.5364L435.108 45.3263C435.586 47.7665 437.476 49.3311 439.971 49.3311C440.31 49.3311 440.66 49.3078 441.009 49.2494C442.922 48.9458 443.983 48.0001 444.532 47.2528C445.08 46.5172 445.663 45.2679 445.383 43.4698L445.301 42.9677L445.29 42.956ZM409.287 45.2562C409.171 45.2796 409.054 45.2796 408.949 45.2796C408.949 45.2796 408.844 45.2796 408.797 45.2796L408.098 40.866C408.214 40.8193 408.366 40.7609 408.576 40.7376C408.657 40.7259 408.739 40.7142 408.809 40.7142C408.984 40.7142 409.287 40.7142 409.415 41.5549L409.835 44.217C409.987 45.1511 409.649 45.1978 409.287 45.2562ZM434.163 35.6585C433.942 35.0864 433.685 34.561 433.394 34.0589L433.93 34.1757L434.163 35.6585ZM437.884 31.5486V31.5252C437.954 30.7196 438.164 30.6846 438.432 30.6495C438.444 30.6495 438.455 30.6495 438.479 30.6495L438.525 30.9297C438.549 31.0699 438.537 31.1516 438.549 31.1516C438.525 31.1866 438.362 31.3501 437.896 31.5486H437.884Z" fill="white"/>
<path d="M149.06 64.5333L176.21 60.2249L176.117 59.6294C177.703 61.5442 180.315 62.6418 183.569 62.6418C184.409 62.6418 185.284 62.5717 186.193 62.4199C193.343 61.2874 195.897 56.7571 195.267 52.7639C195.185 52.2151 195.034 51.7014 194.859 51.2226C196.258 52.8806 198.264 53.8381 200.62 53.8381C201.086 53.8381 201.565 53.803 202.043 53.7213C203.361 53.5111 204.55 53.0324 205.553 52.3319L206.346 57.3292L211.268 56.5469L211.361 57.1657L220.271 55.7529L219.094 48.292C220.796 49.2027 222.441 49.3428 223.257 49.3428C223.782 49.3428 224.307 49.2961 224.843 49.2144C227.199 48.8407 229.193 47.6965 230.535 45.9684L231.794 53.9548L240.856 52.5187L239.503 43.9835L239.9 43.9251C241.427 45.8634 243.783 47.0193 246.512 47.0193C247.025 47.0193 247.55 46.9726 248.075 46.8908C250.256 46.5406 252.075 45.5481 253.347 44.1353L254.338 50.382L263.4 48.9458L263.003 46.4588L286.282 42.7692C287.052 43.2363 287.961 43.5048 288.964 43.5048C289.279 43.5048 289.617 43.4815 289.944 43.4231C291.833 43.1195 292.906 42.1387 293.454 41.3798C293.524 41.2747 293.594 41.1813 293.653 41.0762C294.527 41.8235 295.659 42.2438 296.941 42.2438C297.256 42.2438 297.594 42.2204 297.921 42.1621C299.577 41.8935 300.883 41.0295 301.63 39.8035C302.504 40.5508 303.636 40.9711 304.919 40.9711C305.233 40.9711 305.572 40.9478 305.898 40.8894C307.788 40.5858 308.861 39.605 309.409 38.8461C310.178 37.7836 310.482 36.4408 310.26 35.0631L310.19 34.6194C309.782 32.0623 307.788 30.3343 305.21 30.3343C304.895 30.3343 304.557 30.3576 304.231 30.416C302.33 30.7196 301.268 31.7004 300.72 32.4593C300.65 32.5644 300.58 32.6578 300.522 32.7629C299.647 32.0156 298.516 31.5953 297.233 31.5953C296.918 31.5953 296.58 31.6186 296.253 31.677C294.597 31.9456 293.291 32.8096 292.545 34.0356C291.67 33.2883 290.539 32.868 289.256 32.868C288.941 32.868 288.603 32.8913 288.276 32.9497C287.075 33.1365 286.212 33.6036 285.594 34.1173L283.483 34.4559L286.27 28.8981L280.975 27.0066L283.226 26.6446L281.873 18.0861L259.365 21.659L260.542 29.1316L260.263 29.1783L258.851 20.2579L249.79 21.694L249.988 22.955L237.672 24.9049L238.267 28.6763L237.112 28.8631L236.319 23.8307L227.257 25.2669L227.84 28.9448C226.464 28.0107 224.843 27.5204 223.024 27.5204C222.499 27.5204 221.963 27.5671 221.426 27.6488C219.35 27.9757 217.566 28.8981 216.236 30.2992L215.735 27.1117L206.824 28.5245L206.883 28.8631L201.95 29.6454L202.171 31.0582L192.165 32.6461L192.748 36.3474L192.491 36.3941L191.628 30.9414L182.566 32.3776L182.776 33.6853L169.399 35.8103L169.376 35.6819L160.349 37.118L160.921 40.7376L157.433 41.2864L156.862 37.6668L147.835 39.103L150.436 55.5428L147.695 55.9748L149.048 64.5567L149.06 64.5333ZM261.627 37.7485L262.572 37.5967L262.712 37.7369L261.65 37.9003L261.627 37.7485ZM172 52.0983V52.0633L172.035 52.0867H172V52.0983ZM172.093 44.1236C171.79 44.5206 171.405 44.9643 170.962 45.4547L170.787 44.3338L172.105 44.1236H172.093Z" fill="white"/>
<path d="M320.721 33.8955C321.246 33.8955 321.771 33.8487 322.308 33.767C324.663 33.3934 326.658 32.2491 327.999 30.5211L329.258 38.5075L338.32 37.0713L337.329 30.8247L350.648 28.7113L351.639 34.958L360.701 33.5218L360.304 31.0348L385.554 27.03L385.484 26.6213C386.324 27.3102 387.408 27.6955 388.656 27.6955C388.994 27.6955 389.344 27.6721 389.694 27.6138C391.607 27.3102 392.668 26.3644 393.216 25.6172C393.764 24.8816 394.347 23.6322 394.067 21.8341L393.986 21.3321C393.834 20.363 393.461 19.534 392.925 18.8568L392.551 16.5099C395.257 14.7118 397.228 11.5826 396.575 7.47264C395.852 2.93068 392.376 0 387.711 0C387.093 0 386.463 0.046704 385.822 0.151788C382.86 0.618828 380.492 2.14839 379.034 4.39018L378.778 2.79057L357.424 6.17661L358.508 13.0655L357.459 13.2289L356.129 4.82219L347.067 6.25834L347.347 8.03309L334.028 10.1465L333.749 8.3717L324.687 9.80785L325.27 13.5091C323.346 12.2248 321.363 12.0496 320.441 12.0496C319.917 12.0496 319.38 12.0963 318.844 12.1781C316.15 12.6101 313.934 14.0229 312.604 16.1829C311.263 18.3664 310.843 21.1336 311.368 24.4262C312.756 33.2066 318.844 33.8838 320.675 33.8838L320.721 33.8955ZM386.592 9.90125C386.662 9.09561 386.872 9.07226 387.128 9.02555C387.14 9.02555 387.152 9.02555 387.175 9.02555L387.222 9.30578C387.245 9.44589 387.233 9.52762 387.245 9.52762C387.222 9.56265 387.058 9.72611 386.592 9.92461V9.90125ZM383.594 18.5415L381.519 18.8684L380.434 12.038L382.638 12.54L383.583 18.5415H383.594ZM360.013 22.2778L358.963 22.4413L358.858 21.7758L359.908 21.6123L360.013 22.2778Z" fill="white"/>
<path d="M11.6626 113.864L8.39707 93.2096L17.2606 91.8085C21.0743 91.2013 23.6401 93.2796 24.2465 97.0743C24.853 100.869 23.0453 103.636 19.2316 104.243L13.7036 105.119L15.0098 113.351L11.6743 113.876L11.6626 113.864ZM13.237 102.177L18.5552 101.336C20.2346 101.068 21.0976 99.9933 20.8411 98.3353L20.6195 96.9109C20.3629 95.2529 19.2083 94.4939 17.5172 94.7625L12.1991 95.6032L13.237 102.177Z" fill="#231F20"/>
<path d="M29.0749 111.109L26.6374 95.7199L29.8562 95.2062L30.3228 98.1602L30.4744 98.1369C30.6726 96.5022 31.7806 94.8909 34.2297 94.5056L35.0811 94.3655L35.5709 97.4713L34.2997 97.6698C31.7339 98.0785 30.4744 99.1293 30.7309 100.752L32.2821 110.572L29.0632 111.086L29.0749 111.109Z" fill="#231F20"/>
<path d="M37.4019 101.897C36.6206 96.9809 38.9064 93.4081 43.1983 92.7308C47.4901 92.0536 50.7556 94.7508 51.537 99.6547C52.3184 104.559 50.0325 108.143 45.7407 108.82C41.4489 109.498 38.1833 106.8 37.4019 101.897ZM48.3415 101.5L47.9333 98.8958C47.5018 96.1753 45.834 95.0427 43.6181 95.393C41.4022 95.7433 40.166 97.3312 40.5975 100.063L41.0057 102.667C41.4372 105.388 43.105 106.52 45.3208 106.17C47.5367 105.82 48.773 104.232 48.3415 101.5Z" fill="#231F20"/>
<path d="M59.8991 106.217C57.6482 106.579 56.307 105.539 55.9688 103.414L54.476 94.0035L52.0852 94.3889L51.6653 91.7501L52.9715 91.5399C54.0328 91.3764 54.3244 90.8744 54.1494 89.8002L53.7179 87.103L56.6102 86.6477L57.275 90.851L60.4939 90.3373L60.9137 92.9761L57.6949 93.4898L59.2926 103.613L62.2783 103.134L62.6981 105.773L59.8874 106.217H59.8991Z" fill="#231F20"/>
<path d="M63.4679 97.7632C62.6865 92.8476 64.879 89.2864 69.2642 88.5975C73.6493 87.9087 76.6349 90.9211 77.2997 95.1828L77.4863 96.3971L66.9316 98.0668L67.0133 98.5689C67.3865 100.939 69.1009 102.399 71.7016 101.978C73.591 101.675 74.6989 100.589 75.387 99.0242L77.5679 100.589C76.7166 102.667 74.6639 104.232 71.7949 104.687C67.4215 105.376 64.2376 102.667 63.4562 97.7632H63.4679ZM66.5701 95.7316L66.6051 95.9418L73.7543 94.8092L73.7076 94.5173C73.3344 92.1471 71.7833 90.7926 69.6607 91.1196C67.4098 91.4815 66.1969 93.3614 66.5701 95.7316Z" fill="#231F20"/>
<path d="M79.3173 95.2529C78.5359 90.3373 80.6119 86.7994 85.0203 86.0989C88.0993 85.6085 90.2802 86.8111 91.563 88.9478L89.1022 90.6175C88.4375 89.2631 87.2246 88.5158 85.4518 88.7961C83.0843 89.1697 82.128 90.9911 82.5012 93.3614L82.9327 96.1169C83.3059 98.4871 84.7754 99.9233 87.1429 99.5497C89.0323 99.2461 89.907 98.0785 90.3501 96.4322L93.0092 97.3429C92.3678 100.017 90.5251 101.745 87.5628 102.212C83.1543 102.912 80.0871 100.18 79.3173 95.2646V95.2529Z" fill="#231F20"/>
<path d="M100.31 99.8182C98.0591 100.18 96.7179 99.141 96.3797 97.0159L94.8869 87.6051L92.4961 87.9904L92.0762 85.3516L93.3824 85.1414C94.4437 84.978 94.7353 84.4759 94.5603 83.4017L94.1288 80.7046L97.0211 80.2492L97.6859 84.4526L100.905 83.9388L101.325 86.5776L98.1058 87.0913L99.7035 97.2144L102.689 96.7357L103.109 99.3745L100.298 99.8182H100.31Z" fill="#231F20"/>
<path d="M112.871 97.8216L109.605 77.1667L118.469 75.7656C122.282 75.1585 124.848 77.2368 125.455 81.0315C126.061 84.8262 124.253 87.5934 120.44 88.2006L114.912 89.0763L116.218 97.3078L112.882 97.8333L112.871 97.8216ZM114.445 86.1339L119.763 85.2932C121.443 85.0247 122.306 83.9505 122.049 82.2925L121.827 80.868C121.571 79.21 120.416 78.4511 118.725 78.7197L113.407 79.5603L114.445 86.1339Z" fill="#231F20"/>
<path d="M127.729 87.5817C126.947 82.6661 129.233 79.0933 133.525 78.4161C137.817 77.7389 141.082 80.436 141.864 85.3399C142.645 90.2439 140.359 93.8284 136.068 94.5056C131.776 95.1828 128.51 92.4857 127.729 87.5817ZM138.668 87.1731L138.26 84.5693C137.829 81.8488 136.161 80.7162 133.945 81.0665C131.729 81.4168 130.493 83.0047 130.924 85.7369L131.332 88.3407C131.764 91.0612 133.432 92.1938 135.648 91.8435C137.864 91.4932 139.1 89.9053 138.668 87.1731Z" fill="#231F20"/>
<path d="M149.34 92.042C147.124 92.3923 145.876 91.3764 145.549 89.3682L142.587 70.6632L145.806 70.1495L148.85 89.4149L150.984 89.0763L151.404 91.715L149.34 92.042Z" fill="#231F20"/>
<path d="M150.459 71.5389L150.378 71.0368C150.226 70.056 150.704 69.2621 152.034 69.0402C153.363 68.8184 154.04 69.4489 154.191 70.4297L154.273 70.9317C154.424 71.9125 153.981 72.7065 152.652 72.9167C151.322 73.1268 150.622 72.508 150.459 71.5389ZM151.45 75.9291L154.669 75.4153L157.107 90.8043L153.888 91.3181L151.45 75.9291Z" fill="#231F20"/>
<path d="M165.387 89.4966C163.136 89.8586 161.795 88.8194 161.457 86.6944L159.964 77.2835L157.573 77.6688L157.153 75.03L158.46 74.8199C159.521 74.6564 159.813 74.1543 159.638 73.0801L159.206 70.383L162.098 69.9276L162.763 74.131L165.982 73.6172L166.402 76.256L163.183 76.7698L164.781 86.8929L167.766 86.4141L168.186 89.0529L165.376 89.4966H165.387Z" fill="#231F20"/>
<path d="M167.895 68.7717L167.813 68.2696C167.661 67.2888 168.14 66.4949 169.469 66.273C170.799 66.0512 171.475 66.6817 171.627 67.6625L171.708 68.1645C171.86 69.1453 171.417 69.9393 170.087 70.1495C168.758 70.3596 168.058 69.7408 167.895 68.7717ZM168.898 73.1619L172.117 72.6481L174.554 88.0371L171.335 88.5508L168.898 73.1619Z" fill="#231F20"/>
<path d="M176.315 79.8756C175.534 74.96 177.61 71.4221 182.018 70.7216C185.097 70.2312 187.278 71.4338 188.561 73.5705L186.1 75.2402C185.435 73.8858 184.222 73.1385 182.45 73.4187C180.082 73.7924 179.126 75.6138 179.511 77.9841L179.942 80.7396C180.315 83.1098 181.785 84.546 184.152 84.1723C186.042 83.8688 186.916 82.7012 187.36 81.0548L190.019 81.9656C189.377 84.6394 187.535 86.3674 184.572 86.8345C180.164 87.535 177.097 84.8028 176.327 79.8872L176.315 79.8756Z" fill="#231F20"/>
<path d="M204.317 83.32C202.638 83.5885 201.576 82.6661 201.133 81.1833L200.982 81.2066C200.69 83.2266 199.197 84.4876 196.958 84.8496C193.762 85.3516 191.71 83.8571 191.267 81.0548C190.777 77.9724 192.818 76.0809 197.098 75.392L199.874 74.9483L199.664 73.6406C199.36 71.7491 198.194 70.8383 196.037 71.1886C194.229 71.4688 193.308 72.5314 192.701 73.8741L190.509 72.438C191.267 70.5231 192.841 69.0052 195.827 68.5265C199.815 67.896 202.311 69.4722 202.859 72.9283L204.084 80.6462L205.705 80.3893L206.125 83.0281L204.317 83.3083V83.32ZM200.55 79.2451L200.2 77.0266L197.483 77.4586C195.267 77.8089 194.252 78.6729 194.474 80.0624L194.555 80.5995C194.777 81.9889 195.862 82.5143 197.483 82.2575C199.489 81.9422 200.795 80.7629 200.55 79.2567V79.2451Z" fill="#231F20"/>
<path d="M211.968 82.1057C209.752 82.456 208.504 81.4402 208.177 79.4319L205.215 60.7269L208.434 60.2132L211.478 79.4786L213.612 79.14L214.032 81.7788L211.968 82.1057Z" fill="#231F20"/>
<path d="M221.286 77.4119L223.245 74.8899C224.971 76.4312 226.838 77.085 229.077 76.723C231.712 76.3027 232.867 74.8199 232.552 72.7999C232.296 71.1769 231.328 70.418 228.855 70.3246L226.966 70.2896C222.826 70.1845 220.528 68.6666 220.003 65.3623C219.42 61.696 221.904 58.9989 226.278 58.2983C229.38 57.8079 231.806 58.5785 233.753 60.3533L231.747 62.7936C230.465 61.5676 228.843 60.9137 226.569 61.2757C224.295 61.6376 223.001 62.8403 223.28 64.6501C223.56 66.4598 224.703 66.9386 227.024 67.032L228.913 67.1254C233.182 67.2655 235.293 68.7834 235.818 72.0993C236.436 75.9758 234.08 78.9532 229.357 79.7121C225.893 80.2609 223.35 79.2684 221.263 77.4119H221.286Z" fill="#231F20"/>
<path d="M237.555 62.2798L240.774 61.7661L241.182 64.3115L241.334 64.2881C241.719 62.3149 243.153 61.0305 245.194 60.7036C249.101 60.0847 251.784 62.6885 252.589 67.7792C253.393 72.87 251.644 76.1743 247.749 76.7931C245.708 77.12 243.935 76.2794 242.979 74.5747L242.827 74.598L244.168 83.0631L240.949 83.5769L237.579 62.2682L237.555 62.2798ZM249.381 69.6474L248.961 66.9853C248.588 64.615 246.886 63.284 244.646 63.6342C242.664 63.9495 241.322 65.2572 241.579 66.8218L242.407 72.0877C242.652 73.6523 244.331 74.4813 246.314 74.166C248.565 73.804 249.766 72.0176 249.381 69.6474Z" fill="#231F20"/>
<path d="M254.641 67.4523C253.86 62.5367 256.052 58.9755 260.437 58.2866C264.823 57.5977 267.808 60.6102 268.473 64.8719L268.66 66.0862L258.105 67.7559L258.187 68.2579C258.56 70.6282 260.274 72.0877 262.875 71.6673C264.764 71.3638 265.872 70.2779 266.56 68.7133L268.741 70.2779C267.89 72.3562 265.837 73.9208 262.968 74.3762C258.595 75.0651 255.411 72.3562 254.629 67.4523H254.641ZM257.743 65.409L257.778 65.6192L264.928 64.4866L264.881 64.1947C264.508 61.8245 262.957 60.47 260.834 60.797C258.583 61.1589 257.37 63.0504 257.743 65.409Z" fill="#231F20"/>
<path d="M270.479 64.942C269.698 60.0264 271.89 56.4652 276.275 55.7763C280.66 55.0874 283.646 58.0998 284.311 62.3616L284.497 63.5759L273.943 65.2455L274.024 65.7476C274.398 68.1178 276.112 69.5773 278.713 69.157C280.602 68.8534 281.71 67.7676 282.398 66.203L284.579 67.7676C283.728 69.8459 281.675 71.4105 278.806 71.8658C274.433 72.5547 271.249 69.8459 270.467 64.942H270.479ZM273.581 62.8987L273.616 63.1088L280.765 61.9763L280.719 61.6844C280.345 59.3141 278.794 57.9597 276.672 58.2866C274.421 58.6486 273.208 60.5401 273.581 62.8987Z" fill="#231F20"/>
<path d="M286.328 62.4316C285.547 57.516 287.623 53.9782 292.031 53.2776C295.11 52.7872 297.291 53.9899 298.574 56.1266L296.113 57.7962C295.449 56.4418 294.236 55.6946 292.463 55.9748C290.095 56.3484 289.139 58.1699 289.524 60.5401L289.955 63.2956C290.329 65.6659 291.798 67.102 294.166 66.7284C296.055 66.4248 296.93 65.2572 297.373 63.6109L300.032 64.5216C299.391 67.1954 297.548 68.9235 294.586 69.3905C290.177 70.0911 287.11 67.3589 286.34 62.4433L286.328 62.4316Z" fill="#231F20"/>
<path d="M299.6 45.77L302.819 45.2562L304.254 54.3168L304.405 54.2934C304.825 52.5304 305.898 51.0825 308.266 50.7089C311.426 50.2068 313.607 52.075 314.202 55.8931L315.741 65.6542L312.523 66.1679L311.041 56.7921C310.657 54.3985 309.502 53.371 307.578 53.6746C305.898 53.9432 304.37 55.0641 304.65 56.8388L306.283 67.1721L303.064 67.6858L299.6 45.7933V45.77Z" fill="#231F20"/>
<path d="M319.17 63.4124L319.1 62.9687C318.914 61.8128 319.497 60.8437 320.943 60.6102C322.389 60.3766 323.24 61.1239 323.415 62.2798L323.485 62.7235C323.672 63.8794 323.089 64.8486 321.643 65.0821C320.197 65.3156 319.345 64.5683 319.17 63.4124Z" fill="#231F20"/>
<path d="M327.147 62.1397L327.078 61.696C326.891 60.5401 327.474 59.571 328.92 59.3375C330.366 59.104 331.218 59.8512 331.393 61.0071L331.463 61.4508C331.649 62.6068 331.066 63.5759 329.62 63.8094C328.174 64.0429 327.322 63.2956 327.147 62.1397Z" fill="#231F20"/>
<path d="M335.136 60.8787L335.066 60.435C334.88 59.2791 335.463 58.31 336.909 58.0765C338.355 57.843 339.207 58.5902 339.382 59.7461L339.452 60.1898C339.638 61.3457 339.055 62.3149 337.609 62.5484C336.163 62.7819 335.311 62.0346 335.136 60.8787Z" fill="#231F20"/>
<path d="M363.453 41.8818L363.302 41.9052L362.205 45.5014L358.986 54.4803L353.155 46.9376L350.998 43.8551L350.846 43.8784L353.342 59.6761L350.146 60.1781L346.881 39.5233L350.846 38.8928L358.03 48.5255L358.205 48.5021L362.065 37.118L365.844 36.5226L369.11 57.1774L365.914 57.6795L363.418 41.8818H363.453Z" fill="#231F20"/>
<path d="M384.667 54.7254C382.988 54.994 381.927 54.0716 381.484 52.5887L381.332 52.6121C381.04 54.632 379.548 55.893 377.308 56.255C374.113 56.7571 372.06 55.2625 371.617 52.4603C371.127 49.3778 373.168 47.4863 377.448 46.7974L380.224 46.3538L380.014 45.046C379.711 43.1545 378.545 42.2438 376.387 42.5941C374.579 42.8743 373.658 43.9368 373.051 45.2796L370.859 43.8434C371.617 41.9285 373.191 40.4107 376.177 39.9319C380.166 39.3014 382.661 40.8777 383.21 44.3338L384.434 52.0516L386.055 51.7948L386.475 54.4335L384.667 54.7138V54.7254ZM380.9 50.6505L380.551 48.4321L377.833 48.8641C375.617 49.2144 374.603 50.0784 374.824 51.4678L374.906 52.0049C375.127 53.3944 376.212 53.9198 377.833 53.6629C379.839 53.3477 381.145 52.1684 380.9 50.6622V50.6505Z" fill="#231F20"/>
<path d="M395.829 37.1764L398.931 36.686L395.374 56.1499C394.989 58.3333 394.137 59.2908 391.782 59.6644L389.916 59.9563L389.496 57.3175L392.096 56.9089L392.575 54.165L384.446 38.9862L387.665 38.4724L392.166 47.0426L393.578 50.2419L393.729 50.2185L394.172 46.7157L395.817 37.1764H395.829Z" fill="#231F20"/>
<path d="M399.969 29.8439L403.188 29.3301L404.622 38.3907L404.774 38.3674C405.159 36.3941 406.593 35.1098 408.634 34.7828C412.541 34.164 415.223 36.7677 416.028 41.8585C416.833 46.9492 415.083 50.2535 411.188 50.8724C409.147 51.1993 407.374 50.3586 406.418 48.6539L406.267 48.6773L406.675 51.2226L403.456 51.7364L399.992 29.8439H399.969ZM412.833 43.7383L412.413 41.0762C412.04 38.706 410.337 37.3749 408.098 37.7252C406.115 38.0404 404.774 39.3481 405.03 40.9127L405.858 46.1786C406.103 47.7432 407.783 48.5722 409.765 48.2569C412.016 47.895 413.217 46.1086 412.833 43.7383Z" fill="#231F20"/>
<path d="M418.092 41.5316C417.311 36.616 419.504 33.0548 423.889 32.3659C428.274 31.677 431.259 34.6894 431.924 38.9512L432.111 40.1655L421.556 41.8351L421.638 42.3372C422.011 44.7074 423.725 46.1669 426.326 45.7466C428.216 45.443 429.324 44.3572 430.012 42.7926L432.193 44.3572C431.341 46.4355 429.289 48.0001 426.42 48.4554C422.046 49.1443 418.862 46.4355 418.081 41.5316H418.092ZM421.183 39.4999L421.218 39.7101L428.367 38.5775L428.321 38.2856C427.947 35.9154 426.396 34.561 424.274 34.8879C422.023 35.2499 420.81 37.1414 421.183 39.4999Z" fill="#231F20"/>
<path d="M437.872 39.64L437.126 34.9346C440.298 34.2808 441.884 32.8213 441.511 30.451L441.441 30.0424C441.161 28.2326 439.808 27.3569 437.942 27.6488C435.96 27.964 435.015 29.4235 434.852 31.2684L431.866 30.5911C432.193 28.0224 433.837 25.3953 437.616 24.7998C441.394 24.2044 444.333 26.0959 444.893 29.587C445.453 33.0781 443.109 35.5418 440.52 36.4408L440.951 39.1613L437.872 39.6517V39.64ZM438.059 44.614L437.977 44.112C437.791 42.956 438.315 42.057 439.832 41.8118C441.348 41.5666 442.117 42.2671 442.304 43.4231L442.386 43.9251C442.572 45.0811 442.047 45.9801 440.531 46.2253C439.015 46.4705 438.245 45.7699 438.059 44.614Z" fill="#231F20"/>
<path d="M7.51071 76.7581L4.92162 75.1935C8.26878 71.8775 9.51668 69.5073 9.15514 66.8568L4.56008 67.5807L4.15188 65.0354L16.316 63.1088L16.7242 65.6542L12.2107 66.3664V66.3898C12.4557 67.8843 12.3157 69.2154 11.8609 70.4997L12.0241 70.5581L12.5956 70.021C13.0621 69.4956 13.6686 69.4606 14.2634 69.7525L18.8234 72.4847L16.8525 74.8199L12.0241 71.7607C11.7092 71.5973 11.3944 71.6206 11.1961 71.8658C10.368 73.4187 9.08516 74.9717 7.49905 76.7464L7.51071 76.7581ZM25.646 79.6771C26.1009 82.5844 23.8267 85.1064 18.975 85.877C14.1234 86.6477 11.1494 84.9546 10.6829 82.059C10.2164 79.1633 12.5256 76.6063 17.3773 75.8357C22.2289 75.0651 25.1795 76.7581 25.646 79.6888V79.6771ZM22.4272 79.969C22.2289 78.6846 20.8294 77.7155 17.7505 78.2059C14.6715 78.6963 13.6219 80.0507 13.8202 81.3351L13.8902 81.7437C14.0884 83.0047 15.4996 83.9622 18.5785 83.4718C21.6574 82.9814 22.6838 81.6386 22.4855 80.3776L22.4155 79.969H22.4272ZM20.4212 66.6L19.5815 61.2757L22.6371 60.797L24.7714 74.2828L21.7158 74.7615L20.8177 69.0869L16.8175 69.7174L16.4209 67.2305L20.4212 66.6Z" fill="#231F20"/>
<path d="M37.4486 70.7916L42.3935 74.2944L40.4692 76.5713L35.2794 72.6831C35.0111 72.5197 34.6729 72.543 34.533 72.7999C33.7399 74.5863 32.4687 76.3728 30.7543 78.5095L28.2235 76.9916C31.594 73.1619 32.8535 70.4881 32.3987 67.2655L27.6987 68.0127L27.2905 65.4674L39.8628 63.4708L40.2709 66.0162L35.396 66.7868C35.6759 68.5382 35.5126 70.0327 35.0344 71.5039L35.2094 71.5856L35.7692 70.9901C36.2707 70.4881 36.8888 70.4414 37.4486 70.78V70.7916ZM36.8888 62.1164L29.6813 63.2606L29.2731 60.7152L36.4806 59.571L36.8888 62.1164ZM44.936 57.2591L48.5164 79.9223L45.4375 80.4127L41.8571 57.7495L44.936 57.2591Z" fill="#231F20"/>
<path d="M52.3067 69.8926L49.7176 68.328C53.0415 64.9303 54.3011 62.5484 53.9162 59.8162L49.3211 60.5401L48.9129 57.9947L61.077 56.0682L61.4852 58.6136L56.9718 59.3258V59.4075C57.2284 60.9254 57.0884 62.2565 56.6102 63.5525L56.8085 63.6226L57.38 63.0621C57.8581 62.56 58.4529 62.525 59.0477 62.7936L63.6195 65.5958L61.6485 67.931L56.8085 64.8018C56.4936 64.6384 56.1787 64.6617 55.9921 64.9303C55.1641 66.5065 53.9045 68.0478 52.3067 69.8926ZM54.5926 70.8967L69.7307 68.4915L71.1652 77.5637L68.1679 78.0424L67.1416 71.5389L55.0008 73.4654L54.5926 70.8967ZM67.3981 53.698L69.5441 67.2888L66.4885 67.7676L65.5904 62.093L61.5902 62.7235L61.1936 60.2365L65.1939 59.606L64.3309 54.1884L67.3865 53.7096L67.3981 53.698Z" fill="#231F20"/>
<path d="M86.7814 61.1823L91.8546 65.4907L89.8836 67.8026L84.6121 63.1088C84.3789 62.9337 84.0873 62.957 83.994 63.2022C83.236 65.2222 81.9997 67.2305 80.367 69.6824L77.7895 68.1645C81.1017 63.6926 82.2446 60.5635 81.6382 56.6987L81.5449 56.0799L76.9032 56.8155L76.495 54.2701L88.7407 52.3319L89.1489 54.8772L84.5538 55.6011L84.6704 56.3251C84.997 58.3567 84.9037 60.1081 84.4605 61.8128L84.6005 61.8712L85.1486 61.3341C85.5918 60.8437 86.2682 60.7619 86.8047 61.1706L86.7814 61.1823ZM99.202 59.8746L95.7149 60.4233L97.5693 72.1694L94.5137 72.6481L90.9216 49.9616L93.9772 49.4829L95.3067 57.8896L98.7939 57.3409L99.202 59.8862V59.8746Z" fill="#231F20"/>
<path d="M121.699 61.0422L116.614 61.8478L117.851 69.6357L114.818 70.1144L113.582 62.3265L108.649 63.1088L109.885 70.8967L106.853 71.3754L105.616 63.5875L100.532 64.3932L100.123 61.8478L121.268 58.4968L121.676 61.0422H121.699ZM101.628 54.1183C101.138 51.0125 103.307 48.2453 108.695 47.3929C114.084 46.5406 116.999 48.5021 117.489 51.608C117.979 54.7138 115.821 57.5394 110.433 58.3917C105.045 59.2441 102.118 57.2358 101.628 54.13V54.1183ZM104.987 53.8497C105.243 55.4377 106.841 56.4301 110.048 55.9164C113.255 55.4027 114.503 53.9782 114.247 52.3786L114.165 51.8648C113.92 50.3002 112.311 49.2611 109.069 49.7748C105.826 50.2886 104.648 51.7714 104.893 53.336L104.975 53.8497H104.987Z" fill="#231F20"/>
<path d="M143.427 53.3594L143.835 55.9281L122.691 59.2791L122.282 56.7104L143.427 53.3594ZM129.723 64.8602L142.19 62.887L142.599 65.4323L129 67.5924C127.717 67.7909 126.947 67.2305 126.737 65.9461L125.898 60.6218L128.977 60.1314L129.723 64.8602ZM140.149 51.643L125.058 54.0366L123.74 45.6882L126.796 45.2095L127.717 51.0475L139.753 49.1443L140.149 51.6663V51.643Z" fill="#231F20"/>
<path d="M172.327 55.1224L172.735 57.6912L151.59 61.0422L151.182 58.4735L160.221 57.0373L159.521 52.6121L153.235 53.6046L151.334 41.5783L154.366 41.0996L154.938 44.7191L164.431 43.2129L163.859 39.5933L166.892 39.1146L168.793 51.1409L162.612 52.1217L163.311 56.5469L172.35 55.1108L172.327 55.1224ZM155.859 50.6272L165.352 49.121L164.816 45.7583L155.322 47.2645L155.859 50.6272Z" fill="#231F20"/>
<path d="M174.752 50.1835L172.163 48.5955C175.452 45.3029 176.723 43.0027 176.385 40.364L171.848 41.0879L171.44 38.5425L183.604 36.616L184.012 39.1613L179.441 39.8852C179.674 41.3447 179.511 42.6641 179.079 43.9485L179.242 43.9952L179.791 43.4581C180.292 42.956 180.887 42.886 181.458 43.2246L186.007 45.8984L184.036 48.2336L179.219 45.2329C178.951 45.0694 178.613 45.0927 178.449 45.3263C177.586 46.8558 176.327 48.3971 174.741 50.1835H174.752ZM192.258 53.2543C192.713 56.1616 190.462 58.6719 185.715 59.4309C180.969 60.1898 177.995 58.4968 177.528 55.5895C177.062 52.6822 179.371 50.1368 184.117 49.3778C188.864 48.6189 191.791 50.3236 192.258 53.2543ZM189.051 53.5578C188.852 52.2735 187.488 51.3044 184.502 51.7714C181.517 52.2385 180.502 53.5929 180.7 54.8772L180.77 55.2859C180.969 56.5469 182.333 57.516 185.33 57.0373C188.328 56.5586 189.307 55.2275 189.109 53.9665L189.039 53.5578H189.051ZM193.424 39.2898L193.832 41.8351L190.392 42.3839L191.267 47.8833L188.211 48.362L186.077 34.8762L189.132 34.3975L189.995 39.8502L193.436 39.3014L193.424 39.2898Z" fill="#231F20"/>
<path d="M193.926 39.9787L205.425 38.1572L205.798 40.5508L203.209 40.9594L203.232 41.1112C204.527 41.6717 205.32 42.8626 205.623 44.7658C206.136 47.9767 204.492 50.2652 201.565 50.7323C198.637 51.1993 196.398 49.5179 195.897 46.307C195.605 44.4272 195.967 43.0611 196.993 42.127L196.97 41.9519L194.299 42.3722L193.926 39.9787ZM202.952 36.5226L196.048 37.6201L195.663 35.1565L202.568 34.0589L202.952 36.5226ZM202.568 43.9018C202.323 42.3606 201.413 41.6133 200.153 41.8118C198.894 42.0103 198.264 43.0027 198.509 44.544L198.766 46.1319C199.011 47.6731 199.967 48.4204 201.18 48.2219C202.393 48.0234 203.069 47.031 202.824 45.4897L202.568 43.9018ZM213.216 30.5678L216.796 53.2309L213.892 53.6863L212.084 42.2788L210.055 42.6058L211.758 53.3944L208.854 53.8497L205.413 32.1441L208.317 31.6887L209.647 40.0954L211.676 39.7685L210.288 31.0348L213.192 30.5795L213.216 30.5678Z" fill="#231F20"/>
<path d="M229.298 37.4566C230.138 42.7459 227.934 45.6532 224.365 46.2136C220.796 46.7741 217.787 44.7074 216.948 39.4065C216.108 34.1056 218.335 31.21 221.904 30.6378C225.473 30.0657 228.459 32.1324 229.298 37.445V37.4566ZM225.835 36.4759C225.45 34.0122 224.062 32.938 222.324 33.2182C220.586 33.4985 219.572 34.9463 219.957 37.4099L220.423 40.3873C220.808 42.851 222.242 43.9135 223.968 43.6449C225.695 43.3764 226.698 41.9169 226.301 39.4532L225.835 36.4759ZM235.001 34.8879L235.631 38.8928L238.99 38.3557L239.398 40.9244L236.039 41.4615L237.392 49.9967L234.337 50.4754L230.744 27.7889L233.8 27.3102L234.593 32.3425L237.952 31.8054L238.36 34.3508L235.001 34.8879Z" fill="#231F20"/>
<path d="M238.652 32.7045L252.379 30.5328L252.775 33.0548L249.568 33.5685L249.591 33.7437C251.072 34.3275 251.994 35.6002 252.297 37.5851C252.81 40.8427 250.792 43.4114 247.585 43.9135C244.378 44.4155 241.649 42.6174 241.124 39.3482C240.809 37.3749 241.287 35.8687 242.524 34.8646L242.5 34.6894L239.037 35.2382L238.64 32.7162L238.652 32.7045ZM249.218 28.8164L241.567 30.0307L241.159 27.4386L248.81 26.2243L249.218 28.8164ZM249.171 36.8495C248.891 35.0514 247.702 34.2107 246.116 34.4676C244.53 34.7244 243.608 35.892 243.888 37.6902L244.086 38.9512C244.366 40.7493 245.638 41.5783 247.2 41.3331C248.763 41.0879 249.661 39.9203 249.37 38.1222L249.171 36.8612V36.8495ZM261.487 34.6894L258.152 35.2148L259.924 46.4121L256.869 46.8908L253.277 24.2044L256.332 23.7256L257.743 32.6461L261.079 32.1207L261.487 34.6894Z" fill="#231F20"/>
<path d="M284.229 37.4099L284.637 39.9553L263.493 43.3063L263.085 40.7609L268.601 39.8852L267.89 35.3666L270.922 34.8879L271.634 39.4065L275.692 38.7643L274.981 34.2457L278.013 33.767L278.724 38.2856L284.241 37.4099H284.229ZM269.977 25.6522L263.248 26.7147L262.84 24.1693L279.342 21.5539L279.751 24.0993L273.103 25.1501C273.243 26.5512 273.033 27.8473 272.345 29.1667L272.45 29.2017L273.056 28.5478C273.651 27.9524 274.223 27.8123 274.922 28.0458L282.002 30.5795L280.684 33.2066L272.893 30.1708C272.415 30.0073 271.948 30.0307 271.599 30.2992C270.362 31.9923 268.275 33.7553 265.079 35.787L263.073 33.7553C268.181 30.6495 270.059 28.1976 269.966 25.6288L269.977 25.6522Z" fill="#231F20"/>
<path d="M286.993 38.7527L286.923 38.309C286.737 37.1531 287.32 36.184 288.766 35.9504C290.212 35.7169 291.063 36.4642 291.238 37.6201L291.308 38.0638C291.495 39.2197 290.912 40.1888 289.466 40.4223C288.019 40.6559 287.168 39.9086 286.993 38.7527Z" fill="#231F20"/>
<path d="M294.97 37.48L294.9 37.0363C294.714 35.8804 295.297 34.9113 296.743 34.6777C298.189 34.4442 299.041 35.1915 299.216 36.3474L299.286 36.7911C299.472 37.947 298.889 38.9161 297.443 39.1497C295.997 39.3832 295.145 38.6359 294.97 37.48Z" fill="#231F20"/>
<path d="M302.948 36.219L302.878 35.7753C302.691 34.6194 303.274 33.6503 304.72 33.4167C306.166 33.1832 307.018 33.9305 307.193 35.0864L307.263 35.5301C307.449 36.686 306.866 37.6551 305.42 37.8886C303.974 38.1222 303.123 37.3749 302.948 36.219Z" fill="#231F20"/>
<path d="M326.763 21.9976C327.602 27.2868 325.398 30.1942 321.829 30.7546C318.261 31.3151 315.252 29.2484 314.412 23.9475C313.572 18.6466 315.8 15.7509 319.369 15.1788C322.937 14.6067 325.923 16.6733 326.763 21.9859V21.9976ZM323.299 21.0168C322.914 18.5532 321.526 17.479 319.788 17.7592C318.051 18.0394 317.036 19.4873 317.421 21.9509L317.887 24.9283C318.272 27.3919 319.707 28.4544 321.433 28.1859C323.159 27.9173 324.162 26.4578 323.765 23.9942L323.299 21.0168ZM336.489 22.2428L333.002 22.7916L334.856 34.5376L331.801 35.0163L328.209 12.3299L331.264 11.8511L332.594 20.2579L336.081 19.7091L336.489 22.2545V22.2428Z" fill="#231F20"/>
<path d="M336.209 12.8903L347.347 11.1272L349.668 25.804L338.53 27.5671L336.209 12.8903ZM341.143 24.5897L346.274 23.7724L344.746 14.0813L339.615 14.8986L341.143 24.5897ZM358.87 18.6933L355.383 19.2421L357.237 30.9881L354.181 31.4668L350.589 8.78036L353.645 8.30164L354.974 16.7084L358.462 16.1596L358.87 18.705V18.6933Z" fill="#231F20"/>
<path d="M381.682 21.9275L382.09 24.4963L360.946 27.8473L360.538 25.2786L369.576 23.8424L368.783 18.8334L362.695 19.8025L360.934 8.69863L376.282 6.27002L376.69 8.86209L364.421 10.812L365.354 16.6967L377.775 14.7234L378.195 17.3389L371.85 18.343L372.643 23.352L381.682 21.9159V21.9275Z" fill="#231F20"/>
<path d="M386.58 18.0161L385.834 13.3106C389.006 12.6568 390.592 11.1973 390.219 8.82706L390.149 8.4184C389.869 6.60862 388.516 5.73292 386.65 6.02482C384.667 6.34007 383.723 7.79957 383.559 9.64438L380.574 8.96717C380.9 6.39845 382.545 3.77135 386.324 3.17587C390.23 2.55705 393.041 4.47191 393.601 7.96304C394.161 11.4542 391.817 13.9178 389.228 14.8169L389.659 17.5374L386.58 18.0278V18.0161ZM386.767 22.9901L386.685 22.488C386.498 21.3321 387.023 20.433 388.539 20.1878C390.056 19.9426 390.825 20.6432 391.012 21.7991L391.094 22.3012C391.28 23.4571 390.755 24.3562 389.239 24.6014C387.723 24.8465 386.953 24.146 386.767 22.9901Z" fill="#231F20"/>
</svg>
