<?xml version="1.0" encoding="UTF-8"?>
<svg id="Layer_2" data-name="Layer 2" xmlns="http://www.w3.org/2000/svg" viewBox="0 0 196.42 179.12">
  <defs>
    <style>
      .cls-1 {
        fill: #fff;
      }
    </style>
  </defs>
  <g id="Layer_1-2" data-name="Layer 1">
    <polygon class="cls-1" points="11.33 157.91 23.48 161.66 37.11 166.07 57.34 176.46 73.18 178.07 114.15 179.12 141.27 175.43 163.01 173.5 182.13 173.22 196.42 151.19 194.4 133.02 194 113.5 193.94 95.99 190.19 88.15 183.45 68.33 188.89 40.49 179.44 28.97 169.76 19.24 133.72 27.8 121.51 25.02 114.47 19.39 120.37 10.64 121.07 .08 114.27 0 97.12 .97 81.53 .87 63.9 4.52 59.61 19.05 71.01 27.19 69.55 29.16 57.73 35.15 51.5 36.94 38.44 32.87 22.61 34.46 1.99 52.26 1.96 72.31 2.97 90.69 0 106.03 2.99 123.63 5.5 142.54 10.72 158 11.33 157.91"/>
  </g>
</svg>