<?xml version="1.0" encoding="UTF-8"?>
<svg id="Layer_2" data-name="Layer 2" xmlns="http://www.w3.org/2000/svg" viewBox="0 0 120.65 178.47">
  <defs>
    <style>
      .cls-1 {
        fill: #fff;
      }
    </style>
  </defs>
  <g id="Layer_1-2" data-name="Layer 1">
    <polygon class="cls-1" points="92.79 104.8 79.44 71.66 65.03 53.19 41.56 33.7 27.19 18.08 26.92 12.07 20.59 5.32 21.45 2.27 17.42 .39 17.23 0 16.94 .16 .58 9.29 .29 9.46 .52 9.82 0 14.24 3.05 15.11 5.47 24.04 10.44 27.43 16.19 47.86 20.45 78.06 28.6 100.03 49.79 128.8 63.75 148.75 65.65 166.44 77.25 178.47 91.08 172.18 98.23 168.19 100.87 166.71 108.02 162.72 120.65 154.26 116.5 138.08 102.44 127.16 92.79 104.8"/>
  </g>
</svg>