<?xml version="1.0" encoding="UTF-8"?>
<svg id="Layer_2" data-name="Layer 2" xmlns="http://www.w3.org/2000/svg" viewBox="0 0 182.56 277.5">
  <defs>
    <style>
      .cls-1 {
        fill: #fff;
      }
    </style>
  </defs>
  <g id="Layer_1-2" data-name="Layer 1">
    <path class="cls-1" d="M182.56,131.48h-21.53l.82-54.59h-7.51s-.03-31.23-.03-31.23l6.37-41.16-4.43,1.08-5.74,41.01-.65-43.82L56.87,0l-1.01,42.55L51.49,1.32l-5.39,1.32,6.62,41.27.63,38.42-16.62,6.21.32,42.94h-16.78l-12.46,9.51v37.04l-7.82,2.38v97.1h161.46l19.2-13.55v-85.38l1.91-1.52v-45.58ZM156.3,99.46l-1.47,3.81-5.94,3.92-1.6-1.24,1.06-4.3,6.23-4.47,1.73,2.27Z"/>
  </g>
</svg>