<?xml version="1.0" encoding="UTF-8"?>
<svg id="Layer_2" data-name="Layer 2" xmlns="http://www.w3.org/2000/svg" viewBox="0 0 150.03 228.86">
  <defs>
    <style>
      .cls-1 {
        fill: #fff;
      }
    </style>
  </defs>
  <g id="Layer_1-2" data-name="Layer 1">
    <path class="cls-1" d="M150.03,17.3v-8.65l-4.33-8.65h-6.98l-14.3,11.64-13.64,15.64-4.32,11.98h-4.99l-19.96,12.31-6.98,27.6v22.96l13.97,25.61-31.59-1-35.6,5.66L0,144.37v12.64l1.99,8.65,1.67,39.59,16.3,14.3,33.26,9.31,24.95-2.66,43.57-3,17.63-12.64,3.33-44.9,3.99-10.31-4.32-11.31-18.29-7.99-.67-8.31,4.66-20.3-4.66-29.93,1.99-8.32-3-17.96-7.65-6.33,20.96-12.97,14.3-14.64ZM119.92,37.09l-6.73,5.35h-3.36v-4.89l5.97-6.26h4.13v5.81ZM123.58,28.23l-.91-6.89,5.97-9.02,9.33-8.72h3.66l3.36,4.89-2.9,9.33-14.84,11.62-3.67-1.22Z"/>
  </g>
</svg>