<?xml version="1.0" encoding="UTF-8"?>
<svg id="Layer_2" data-name="Layer 2" xmlns="http://www.w3.org/2000/svg" viewBox="0 0 151.75 194.69">
  <defs>
    <style>
      .cls-1 {
        fill: #fff;
      }
    </style>
  </defs>
  <g id="Layer_1-2" data-name="Layer 1">
    <path class="cls-1" d="M148.3,138.36l3.45-23.38-7.29-16.09v-22.61l-2.29-17.24,2.29-16.47-3.83-22.23V4.23l-8.04-4.23h-18.01l-6.12,16.11,2.29,17.63-7.66,20.69-15.72,6.14-22.23-3.45-17.63,3.06-12.26-9.97-3.83-25.67,1.15-21.84h-14.18l-13.03,3.83v34.49l3.45,33.74-5.75,42.92-3.04,38.71,20.3,34.48,22.23-4.6,34.1,1.54,15.7-3.44,26.06,10.33,17.24-6.5,8.95-14.11,2.17-12.33,1.54-23.38ZM24.75,38.14l-1.06,7.76-5.66-7.12v-11.93l5.66-14.88,3.56,14.03-2.5,12.14ZM134.66,53.21l-5.66,2.52,1.27-31.2,2.62,2.1,3.87,17.99-2.1,8.58Z"/>
  </g>
</svg>